# xmcd
#
# Track frame offsets:
#	150
#	16752
#	34385
#	48340
#	62962
#	79172
#	96217
#	112120
#	127117
#	143547
#	158907
#	174320
#
# Disc length: 2591
#
# Revision: 2
# Processed by: cddbd v1.5.1PL0 Copyright (c) Steve Scherf et al.
# Submitted via: audiograbber 1.80
# Normalized: r1:DSETVAR1
#
DISCID=9f0a1d0c
DTITLE=Various Artist - Real Country Music 2000 - Volume 1
DYEAR=1900
DGENRE=
TTITLE0=Troy Cassar Daley - Bar Room Roses
TTITLE1=Dixie Chicks - I Can Love You Better
TTITLE2=Wade Hayes - Tore Up From The Floor Up
TTITLE3=Montgomery Gentry - Hillbilly Shoes
TTITLE4=Renee Stewart - Kiss And Tell
TTITLE5=Ricky Skaggs - Cajun Moon
TTITLE6=Joe Diffie - A Night To Remember
TTITLE7=Beccy Cole - Skip A Stone
TTITLE8=Ty Hernon - A Man Holdin' On (To A Woman Lettin' Go)
TTITLE9=The Kinleys - You Make It Seem So Easy
TTITLE10=Collin Raye - Little Red Rodeo
TTITLE11=Tommy Emmanuel - Workin' Man Blues
EXTD=
EXTT0=
EXTT1=
EXTT2=
EXTT3=
EXTT4=
EXTT5=
EXTT6=
EXTT7=
EXTT8=
EXTT9=
EXTT10=
EXTT11=
PLAYORDER=
